<svg width="24" height="24" viewBox="0 0 24 24" fill="none" xmlns="http://www.w3.org/2000/svg">
<path fill-rule="evenodd" clip-rule="evenodd" d="M7.67653 1.12413C10.4005 -0.399271 13.7488 -0.372644 16.4472 1.19387C19.1191 2.7923 20.743 5.64501 20.7279 8.71373C20.6657 11.7623 18.9244 14.628 16.7478 16.8433C15.4915 18.1277 14.0861 19.2634 12.5604 20.2272C12.4032 20.3147 12.2311 20.3732 12.0525 20.4C11.8806 20.393 11.7132 20.3441 11.5653 20.2577C9.23598 18.8095 7.19242 16.9608 5.53298 14.8008C4.14441 12.9976 3.35552 10.8192 3.27344 8.5613C3.27164 5.48669 4.95253 2.64752 7.67653 1.12413ZM9.25061 9.83374C9.70882 10.921 10.7904 11.6302 11.9903 11.6302C12.7764 11.6357 13.532 11.3326 14.0888 10.7886C14.6457 10.2445 14.9574 9.50477 14.9546 8.73406C14.9588 7.55764 14.2393 6.49478 13.1319 6.04173C12.0245 5.58868 10.7478 5.83482 9.89787 6.66522C9.04792 7.49562 8.7924 8.74647 9.25061 9.83374Z" fill="#316DC2"/>
<path d="M18.2346 22.8C18.2346 23.4627 15.4436 24 12.0008 24C8.55793 24 5.76696 23.4627 5.76696 22.8C5.76696 22.1373 8.55793 21.6 12.0008 21.6C15.4436 21.6 18.2346 22.1373 18.2346 22.8Z" fill="#316DC2"/>
</svg>
